<svg width="50" height="50" viewBox="0 0 50 50" fill="none" xmlns="http://www.w3.org/2000/svg">
<path d="M46.25 2.64247C45.0788 1.57411 43.7064 0.800142 42.2302 0.375533C40.7539 -0.0490771 39.2101 -0.113919 37.7083 0.18561L29.7458 1.76291C27.9075 2.13119 26.236 3.16299 25 4.6925C23.7607 3.16035 22.0845 2.12832 20.2417 1.76291L12.2917 0.18561C10.7899 -0.114182 9.24611 -0.0501889 7.76953 0.373058C6.29296 0.796304 4.91972 1.56846 3.74701 2.63486C2.57431 3.70126 1.6308 5.03584 0.983296 6.54413C0.335788 8.05242 0.000101693 9.69755 0 11.3631L0 35.893C0.0001197 38.5539 0.856201 41.1305 2.41903 43.1735C3.98185 45.2165 6.15231 46.5964 8.55208 47.0727L21.6479 49.6705C23.8645 50.1098 26.1355 50.1098 28.3521 49.6705L41.4583 47.0727C43.8562 46.594 46.0242 45.2131 47.585 43.1703C49.1457 41.1275 50.0003 38.5523 50 35.893V11.3631C50.0009 9.69813 49.6654 8.05345 49.0172 6.54615C48.3691 5.03884 47.4242 3.70597 46.25 2.64247ZM22.9167 45.2908C22.7417 45.2636 22.5667 45.2318 22.3917 45.1977L9.29792 42.6022C7.85784 42.3163 6.5554 41.4882 5.61768 40.2621C4.67996 39.036 4.16645 37.4898 4.16667 35.893V11.3631C4.16667 9.55473 4.82515 7.82047 5.99725 6.5418C7.16935 5.26312 8.75906 4.54477 10.4167 4.54477C10.7939 4.54575 11.1704 4.58302 11.5417 4.65613L19.5 6.24707C20.4575 6.43821 21.3235 6.98906 21.9476 7.80401C22.5717 8.61896 22.9146 9.64657 22.9167 10.7085V45.2908ZM45.8333 35.893C45.8336 37.4898 45.32 39.036 44.3823 40.2621C43.4446 41.4882 42.1422 42.3163 40.7021 42.6022L27.6083 45.1977C27.4333 45.2318 27.2583 45.2636 27.0833 45.2908V10.7085C27.0832 9.64396 27.4255 8.61314 28.0507 7.79575C28.6758 6.97836 29.5441 6.42625 30.5042 6.2357L38.4646 4.64477C39.3661 4.46584 40.2926 4.50534 41.1786 4.76048C42.0645 5.01561 42.8882 5.48014 43.5913 6.12117C44.2944 6.76219 44.8597 7.56403 45.2471 8.46988C45.6346 9.37573 45.8347 10.3634 45.8333 11.3631V35.893Z" fill="#5F7382"/>
</svg>
