<svg width="50" height="50" viewBox="0 0 50 50" fill="none" xmlns="http://www.w3.org/2000/svg">
<path d="M42.6958 16.6L22.8208 2.01667C21.2685 0.879968 19.4317 0.195404 17.5141 0.0388808C15.5965 -0.117642 13.673 0.259992 11.9569 1.12991C10.2408 1.99983 8.79912 3.32804 7.79179 4.96726C6.78446 6.60649 6.2508 8.49267 6.25 10.4167V39.5833C6.25034 41.5082 6.78403 43.3953 7.79182 45.0353C8.79962 46.6753 10.2421 48.0039 11.9592 48.8738C13.6763 49.7437 15.6009 50.1207 17.5193 49.9632C19.4377 49.8056 21.2749 49.1196 22.8271 47.9813L42.7021 33.3979C44.0214 32.4304 45.0943 31.1658 45.8338 29.7064C46.5733 28.247 46.9586 26.634 46.9586 24.9979C46.9586 23.3619 46.5733 21.7488 45.8338 20.2895C45.0943 18.8301 44.0214 17.5654 42.7021 16.5979L42.6958 16.6ZM40.2292 30.0375L20.3542 44.6208C19.423 45.3013 18.3216 45.7109 17.172 45.8041C16.0225 45.8974 14.8695 45.6707 13.8408 45.1492C12.812 44.6278 11.9477 43.8318 11.3433 42.8494C10.739 41.8671 10.4183 40.7367 10.4167 39.5833V10.4167C10.4051 9.26114 10.7198 8.1258 11.3245 7.14109C11.9293 6.15638 12.7996 5.36227 13.8354 4.85C14.7164 4.40186 15.6907 4.16775 16.6792 4.16667C18.0039 4.17173 19.2921 4.60185 20.3542 5.39375L40.2292 19.9771C41.0198 20.5577 41.6626 21.3163 42.1057 22.1914C42.5488 23.0665 42.7797 24.0337 42.7797 25.0146C42.7797 25.9955 42.5488 26.9626 42.1057 27.8378C41.6626 28.7129 41.0198 29.4715 40.2292 30.0521V30.0375Z" fill="#5F7382"/>
</svg>
