<svg width="708" height="525" viewBox="0 0 708 525" fill="none" xmlns="http://www.w3.org/2000/svg">
<g clip-path="url(#clip0_58_3)">
<path d="M412.409 92.5514C425.678 92.5514 436.435 81.5842 436.435 68.0556C436.435 54.5269 425.678 43.5598 412.409 43.5598C399.14 43.5598 388.383 54.5269 388.383 68.0556C388.383 81.5842 399.14 92.5514 412.409 92.5514Z" fill="#F2F2F2"/>
<path d="M598.786 456.096C634.498 428.364 651.555 381.762 640.877 337.307C640.611 336.202 640.331 335.1 640.036 334.001C632.957 307.613 615.443 282.533 589.916 274.101C568.483 267.022 545.087 272.466 522.727 269.65C478.832 264.124 444.802 227.913 420.857 190.001C396.912 152.088 378.509 109.65 346.692 78.3288C294.246 26.7007 208.693 15.5852 143.667 49.1912C78.6417 82.7973 37.2211 157.355 38.9876 231.661C40.7541 305.968 84.0205 377.01 146.854 414.702C169.936 428.549 196.634 438.358 223.203 434.925C246.256 431.947 267.203 419.318 290.148 415.568C326.223 409.673 362.068 426.303 393.271 445.681C424.473 465.06 454.612 488.029 490.069 497.013C524.497 505.736 567.151 480.663 598.786 456.096Z" fill="#F2F2F2"/>
<path d="M547.477 50.7515C546.694 50.2194 545.902 49.7149 545.119 49.2011C522.489 34.4451 498.234 22.4575 472.854 13.486L466.969 96.2555H429.663V1.40359C427.314 0.908182 424.948 0.4403 422.581 -6.10352e-05V96.2555H378.247C353.84 96.2555 330.433 86.3705 313.175 68.775C295.917 51.1795 286.222 27.315 286.222 2.4312V2.43112C283.846 2.95405 281.488 3.51368 279.131 4.11V96.2555H243.021L237.415 17.33C211.333 27.5283 186.572 40.9395 163.683 57.2652C163.287 57.5405 162.892 57.8249 162.505 58.1001C160.516 59.5221 158.554 60.9716 156.602 62.4395V378.206H263.024L261.143 351.647L250.795 205.823H459.186L448.838 351.647L446.957 378.206H552.201V53.9442C550.635 52.8616 549.06 51.7974 547.477 50.7515ZM279.131 181.741H249.086L243.534 103.485H279.131V181.741ZM422.581 181.741H372.119V180.19C372.119 179.445 371.975 178.707 371.695 178.018C371.415 177.33 371.004 176.704 370.487 176.178C369.97 175.651 369.356 175.234 368.68 174.949C368.004 174.665 367.28 174.519 366.549 174.52H344.611C343.881 174.52 343.158 174.667 342.483 174.951C341.808 175.236 341.195 175.654 340.678 176.18C340.162 176.707 339.752 177.332 339.473 178.02C339.194 178.708 339.05 179.446 339.05 180.19V181.741H286.222V103.485H422.581V181.741ZM429.663 181.741V103.485H466.456L460.905 181.741H429.663Z" fill="#9D9ABA"/>
<path d="M0 398.427C7.817 407.87 16.272 416.745 25.3031 424.986L682.697 425.903C691.728 417.662 700.183 408.787 708 399.344L0 398.427Z" fill="#9D9ABA"/>
<path d="M445.8 313.382V392.009C445.801 393.011 446.192 393.971 446.886 394.68C447.581 395.388 448.524 395.787 449.506 395.788H563.788C564.771 395.787 565.713 395.388 566.408 394.68C567.103 393.971 567.494 393.011 567.495 392.009V313.382C567.492 312.381 567.101 311.422 566.406 310.714C565.712 310.007 564.77 309.609 563.788 309.608H449.506C448.525 309.609 447.583 310.007 446.888 310.714C446.194 311.422 445.802 312.381 445.8 313.382V313.382Z" fill="#9D9ABA"/>
<path d="M448.481 314.361V391.039C448.482 391.574 448.691 392.087 449.062 392.466C449.434 392.844 449.937 393.058 450.462 393.058H562.837C563.362 393.058 563.865 392.844 564.237 392.466C564.608 392.087 564.817 391.574 564.818 391.039V314.361C564.818 313.825 564.609 313.31 564.238 312.931C563.867 312.552 563.363 312.338 562.837 312.337H450.462C449.936 312.338 449.432 312.552 449.061 312.931C448.69 313.31 448.481 313.825 448.481 314.361V314.361Z" fill="#F0F0F1"/>
<path d="M443.41 407.343C443.619 407.611 443.885 407.826 444.188 407.974C444.491 408.122 444.823 408.198 445.159 408.196H567.528C567.862 408.196 568.193 408.119 568.495 407.972C568.797 407.825 569.063 407.612 569.274 407.347C569.484 407.082 569.635 406.772 569.713 406.44C569.792 406.109 569.797 405.763 569.729 405.429L567.829 396.23C567.75 395.855 567.581 395.506 567.336 395.215C567.091 394.923 566.779 394.699 566.427 394.563C566.173 394.461 565.901 394.409 565.628 394.409H447.051C446.777 394.409 446.506 394.461 446.252 394.563C445.9 394.699 445.588 394.923 445.343 395.215C445.098 395.506 444.928 395.855 444.85 396.23L442.95 405.429C442.883 405.763 442.889 406.108 442.968 406.439C443.048 406.77 443.199 407.079 443.41 407.343V407.343Z" fill="#2F2E41"/>
<path d="M561.429 398.371H564.32C564.562 398.371 564.759 398.171 564.759 397.923V396.513C564.759 396.266 564.562 396.066 564.32 396.066H561.429C561.187 396.066 560.99 396.266 560.99 396.513V397.923C560.99 398.171 561.187 398.371 561.429 398.371Z" fill="#9D9ABA"/>
<path d="M553.892 398.371H556.782C557.024 398.371 557.221 398.171 557.221 397.923V396.513C557.221 396.266 557.024 396.066 556.782 396.066H553.892C553.649 396.066 553.452 396.266 553.452 396.513V397.923C553.452 398.171 553.649 398.371 553.892 398.371Z" fill="#9D9ABA"/>
<path d="M546.354 398.371H549.244C549.487 398.371 549.683 398.171 549.683 397.923V396.513C549.683 396.266 549.487 396.066 549.244 396.066H546.354C546.111 396.066 545.914 396.266 545.914 396.513V397.923C545.914 398.171 546.111 398.371 546.354 398.371Z" fill="#9D9ABA"/>
<path d="M538.816 398.371H541.706C541.949 398.371 542.146 398.171 542.146 397.923V396.513C542.146 396.266 541.949 396.066 541.706 396.066H538.816C538.573 396.066 538.377 396.266 538.377 396.513V397.923C538.377 398.171 538.573 398.371 538.816 398.371Z" fill="#9D9ABA"/>
<path d="M531.278 398.371H534.168C534.411 398.371 534.608 398.171 534.608 397.923V396.513C534.608 396.266 534.411 396.066 534.168 396.066H531.278C531.036 396.066 530.839 396.266 530.839 396.513V397.923C530.839 398.171 531.036 398.371 531.278 398.371Z" fill="#9D9ABA"/>
<path d="M523.74 398.371H526.631C526.873 398.371 527.07 398.171 527.07 397.923V396.513C527.07 396.266 526.873 396.066 526.631 396.066H523.74C523.498 396.066 523.301 396.266 523.301 396.513V397.923C523.301 398.171 523.498 398.371 523.74 398.371Z" fill="#9D9ABA"/>
<path d="M516.202 398.371H519.093C519.335 398.371 519.532 398.171 519.532 397.923V396.513C519.532 396.266 519.335 396.066 519.093 396.066H516.202C515.96 396.066 515.763 396.266 515.763 396.513V397.923C515.763 398.171 515.96 398.371 516.202 398.371Z" fill="#9D9ABA"/>
<path d="M508.665 398.371H511.555C511.798 398.371 511.994 398.171 511.994 397.923V396.513C511.994 396.266 511.798 396.066 511.555 396.066H508.665C508.422 396.066 508.225 396.266 508.225 396.513V397.923C508.225 398.171 508.422 398.371 508.665 398.371Z" fill="#9D9ABA"/>
<path d="M501.127 398.371H504.017C504.26 398.371 504.456 398.171 504.456 397.923V396.513C504.456 396.266 504.26 396.066 504.017 396.066H501.127C500.884 396.066 500.688 396.266 500.688 396.513V397.923C500.688 398.171 500.884 398.371 501.127 398.371Z" fill="#9D9ABA"/>
<path d="M493.589 398.371H496.479C496.722 398.371 496.919 398.171 496.919 397.923V396.513C496.919 396.266 496.722 396.066 496.479 396.066H493.589C493.346 396.066 493.15 396.266 493.15 396.513V397.923C493.15 398.171 493.346 398.371 493.589 398.371Z" fill="#9D9ABA"/>
<path d="M486.051 398.371H488.942C489.184 398.371 489.381 398.171 489.381 397.923V396.513C489.381 396.266 489.184 396.066 488.942 396.066H486.051C485.809 396.066 485.612 396.266 485.612 396.513V397.923C485.612 398.171 485.809 398.371 486.051 398.371Z" fill="#9D9ABA"/>
<path d="M478.513 398.371H481.404C481.646 398.371 481.843 398.171 481.843 397.923V396.513C481.843 396.266 481.646 396.066 481.404 396.066H478.513C478.271 396.066 478.074 396.266 478.074 396.513V397.923C478.074 398.171 478.271 398.371 478.513 398.371Z" fill="#9D9ABA"/>
<path d="M470.976 398.371H473.866C474.108 398.371 474.305 398.171 474.305 397.923V396.513C474.305 396.266 474.108 396.066 473.866 396.066H470.976C470.733 396.066 470.536 396.266 470.536 396.513V397.923C470.536 398.171 470.733 398.371 470.976 398.371Z" fill="#9D9ABA"/>
<path d="M463.438 398.371H466.328C466.571 398.371 466.767 398.171 466.767 397.923V396.513C466.767 396.266 466.571 396.066 466.328 396.066H463.438C463.195 396.066 462.998 396.266 462.998 396.513V397.923C462.998 398.171 463.195 398.371 463.438 398.371Z" fill="#9D9ABA"/>
<path d="M455.9 398.371H458.79C459.033 398.371 459.23 398.171 459.23 397.923V396.513C459.23 396.266 459.033 396.066 458.79 396.066H455.9C455.657 396.066 455.461 396.266 455.461 396.513V397.923C455.461 398.171 455.657 398.371 455.9 398.371Z" fill="#9D9ABA"/>
<path d="M448.362 398.371H451.252C451.495 398.371 451.692 398.171 451.692 397.923V396.513C451.692 396.266 451.495 396.066 451.252 396.066H448.362C448.119 396.066 447.923 396.266 447.923 396.513V397.923C447.923 398.171 448.119 398.371 448.362 398.371Z" fill="#9D9ABA"/>
<path d="M561.519 402.214H564.409C564.651 402.214 564.848 402.013 564.848 401.766V400.356C564.848 400.109 564.651 399.908 564.409 399.908H561.519C561.276 399.908 561.079 400.109 561.079 400.356V401.766C561.079 402.013 561.276 402.214 561.519 402.214Z" fill="#9D9ABA"/>
<path d="M553.981 402.214H556.871C557.114 402.214 557.31 402.013 557.31 401.766V400.356C557.31 400.109 557.114 399.908 556.871 399.908H553.981C553.738 399.908 553.541 400.109 553.541 400.356V401.766C553.541 402.013 553.738 402.214 553.981 402.214Z" fill="#9D9ABA"/>
<path d="M546.443 402.214H549.333C549.576 402.214 549.772 402.013 549.772 401.766V400.356C549.772 400.109 549.576 399.908 549.333 399.908H546.443C546.2 399.908 546.003 400.109 546.003 400.356V401.766C546.003 402.013 546.2 402.214 546.443 402.214Z" fill="#9D9ABA"/>
<path d="M538.905 402.214H541.795C542.038 402.214 542.235 402.013 542.235 401.766V400.356C542.235 400.109 542.038 399.908 541.795 399.908H538.905C538.662 399.908 538.466 400.109 538.466 400.356V401.766C538.466 402.013 538.662 402.214 538.905 402.214Z" fill="#9D9ABA"/>
<path d="M531.367 402.214H534.258C534.5 402.214 534.697 402.013 534.697 401.766V400.356C534.697 400.109 534.5 399.908 534.258 399.908H531.367C531.125 399.908 530.928 400.109 530.928 400.356V401.766C530.928 402.013 531.125 402.214 531.367 402.214Z" fill="#9D9ABA"/>
<path d="M523.829 402.214H526.72C526.962 402.214 527.159 402.013 527.159 401.766V400.356C527.159 400.109 526.962 399.908 526.72 399.908H523.829C523.587 399.908 523.39 400.109 523.39 400.356V401.766C523.39 402.013 523.587 402.214 523.829 402.214Z" fill="#9D9ABA"/>
<path d="M516.291 402.214H519.182C519.424 402.214 519.621 402.013 519.621 401.766V400.356C519.621 400.109 519.424 399.908 519.182 399.908H516.291C516.049 399.908 515.852 400.109 515.852 400.356V401.766C515.852 402.013 516.049 402.214 516.291 402.214Z" fill="#9D9ABA"/>
<path d="M508.754 402.214H511.644C511.887 402.214 512.083 402.013 512.083 401.766V400.356C512.083 400.109 511.887 399.908 511.644 399.908H508.754C508.511 399.908 508.314 400.109 508.314 400.356V401.766C508.314 402.013 508.511 402.214 508.754 402.214Z" fill="#9D9ABA"/>
<path d="M501.216 402.214H504.106C504.349 402.214 504.545 402.013 504.545 401.766V400.356C504.545 400.109 504.349 399.908 504.106 399.908H501.216C500.973 399.908 500.777 400.109 500.777 400.356V401.766C500.777 402.013 500.973 402.214 501.216 402.214Z" fill="#9D9ABA"/>
<path d="M493.678 402.214H496.569C496.811 402.214 497.008 402.013 497.008 401.766V400.356C497.008 400.109 496.811 399.908 496.569 399.908H493.678C493.436 399.908 493.239 400.109 493.239 400.356V401.766C493.239 402.013 493.436 402.214 493.678 402.214Z" fill="#9D9ABA"/>
<path d="M486.14 402.214H489.031C489.273 402.214 489.47 402.013 489.47 401.766V400.356C489.47 400.109 489.273 399.908 489.031 399.908H486.14C485.898 399.908 485.701 400.109 485.701 400.356V401.766C485.701 402.013 485.898 402.214 486.14 402.214Z" fill="#9D9ABA"/>
<path d="M478.602 402.214H481.493C481.735 402.214 481.932 402.013 481.932 401.766V400.356C481.932 400.109 481.735 399.908 481.493 399.908H478.602C478.36 399.908 478.163 400.109 478.163 400.356V401.766C478.163 402.013 478.36 402.214 478.602 402.214Z" fill="#9D9ABA"/>
<path d="M471.065 402.214H473.955C474.198 402.214 474.394 402.013 474.394 401.766V400.356C474.394 400.109 474.198 399.908 473.955 399.908H471.065C470.822 399.908 470.625 400.109 470.625 400.356V401.766C470.625 402.013 470.822 402.214 471.065 402.214Z" fill="#9D9ABA"/>
<path d="M463.527 402.214H466.417C466.66 402.214 466.856 402.013 466.856 401.766V400.356C466.856 400.109 466.66 399.908 466.417 399.908H463.527C463.284 399.908 463.088 400.109 463.088 400.356V401.766C463.088 402.013 463.284 402.214 463.527 402.214Z" fill="#9D9ABA"/>
<path d="M455.989 402.214H458.879C459.122 402.214 459.319 402.013 459.319 401.766V400.356C459.319 400.109 459.122 399.908 458.879 399.908H455.989C455.746 399.908 455.55 400.109 455.55 400.356V401.766C455.55 402.013 455.746 402.214 455.989 402.214Z" fill="#9D9ABA"/>
<path d="M448.451 402.214H451.342C451.584 402.214 451.781 402.013 451.781 401.766V400.356C451.781 400.109 451.584 399.908 451.342 399.908H448.451C448.209 399.908 448.012 400.109 448.012 400.356V401.766C448.012 402.013 448.209 402.214 448.451 402.214Z" fill="#9D9ABA"/>
<path d="M498.955 406.825H528.227C528.47 406.825 528.667 406.624 528.667 406.377V404.967C528.667 404.72 528.47 404.519 528.227 404.519H498.955C498.712 404.519 498.515 404.72 498.515 404.967V406.377C498.515 406.624 498.712 406.825 498.955 406.825Z" fill="#9D9ABA"/>
<path d="M467.941 329.112H465.382C464.606 329.112 463.978 329.753 463.978 330.544C463.978 331.335 464.606 331.976 465.382 331.976H467.941C468.717 331.976 469.346 331.335 469.346 330.544C469.346 329.753 468.717 329.112 467.941 329.112Z" fill="white"/>
<path d="M497.206 329.112H494.647C493.871 329.112 493.243 329.753 493.243 330.544C493.243 331.335 493.871 331.976 494.647 331.976H497.206C497.982 331.976 498.611 331.335 498.611 330.544C498.611 329.753 497.982 329.112 497.206 329.112Z" fill="white"/>
<path d="M505.498 329.112H502.939C502.163 329.112 501.534 329.753 501.534 330.544C501.534 331.335 502.163 331.976 502.939 331.976H505.498C506.274 331.976 506.903 331.335 506.903 330.544C506.903 329.753 506.274 329.112 505.498 329.112Z" fill="white"/>
<path d="M489.246 328.873H473.342C472.567 328.873 471.938 329.515 471.938 330.305C471.938 331.096 472.567 331.738 473.342 331.738H489.246C490.022 331.738 490.651 331.096 490.651 330.305C490.651 329.515 490.022 328.873 489.246 328.873Z" fill="white"/>
<path d="M528.266 328.873H512.362C511.587 328.873 510.958 329.515 510.958 330.305C510.958 331.096 511.587 331.738 512.362 331.738H528.266C529.042 331.738 529.671 331.096 529.671 330.305C529.671 329.515 529.042 328.873 528.266 328.873Z" fill="white"/>
<path d="M475.745 335.577H473.186C472.41 335.577 471.781 336.218 471.781 337.009C471.781 337.8 472.41 338.441 473.186 338.441H475.745C476.521 338.441 477.15 337.8 477.15 337.009C477.15 336.218 476.521 335.577 475.745 335.577Z" fill="white"/>
<path d="M505.01 335.577H502.451C501.675 335.577 501.047 336.218 501.047 337.009C501.047 337.8 501.675 338.441 502.451 338.441H505.01C505.786 338.441 506.415 337.8 506.415 337.009C506.415 336.218 505.786 335.577 505.01 335.577Z" fill="white"/>
<path d="M513.302 335.577H510.743C509.967 335.577 509.338 336.218 509.338 337.009C509.338 337.8 509.967 338.441 510.743 338.441H513.302C514.078 338.441 514.707 337.8 514.707 337.009C514.707 336.218 514.078 335.577 513.302 335.577Z" fill="white"/>
<path d="M497.05 335.338H481.146C480.371 335.338 479.742 335.979 479.742 336.77C479.742 337.561 480.371 338.202 481.146 338.202H497.05C497.826 338.202 498.455 337.561 498.455 336.77C498.455 335.979 497.826 335.338 497.05 335.338Z" fill="white"/>
<path d="M536.07 335.338H520.166C519.391 335.338 518.762 335.979 518.762 336.77C518.762 337.561 519.391 338.202 520.166 338.202H536.07C536.846 338.202 537.475 337.561 537.475 336.77C537.475 335.979 536.846 335.338 536.07 335.338Z" fill="white"/>
<path d="M483.549 342.042H480.99C480.214 342.042 479.586 342.683 479.586 343.474C479.586 344.265 480.214 344.906 480.99 344.906H483.549C484.325 344.906 484.954 344.265 484.954 343.474C484.954 342.683 484.325 342.042 483.549 342.042Z" fill="white"/>
<path d="M512.814 342.042H510.255C509.479 342.042 508.851 342.683 508.851 343.474C508.851 344.265 509.479 344.906 510.255 344.906H512.814C513.59 344.906 514.219 344.265 514.219 343.474C514.219 342.683 513.59 342.042 512.814 342.042Z" fill="white"/>
<path d="M521.106 342.042H518.547C517.771 342.042 517.142 342.683 517.142 343.474C517.142 344.265 517.771 344.906 518.547 344.906H521.106C521.882 344.906 522.51 344.265 522.51 343.474C522.51 342.683 521.882 342.042 521.106 342.042Z" fill="white"/>
<path d="M504.854 341.803H488.95C488.175 341.803 487.546 342.444 487.546 343.235C487.546 344.026 488.175 344.667 488.95 344.667H504.854C505.63 344.667 506.259 344.026 506.259 343.235C506.259 342.444 505.63 341.803 504.854 341.803Z" fill="white"/>
<path d="M543.874 341.803H527.97C527.195 341.803 526.566 342.444 526.566 343.235C526.566 344.026 527.195 344.667 527.97 344.667H543.874C544.65 344.667 545.279 344.026 545.279 343.235C545.279 342.444 544.65 341.803 543.874 341.803Z" fill="white"/>
<path d="M491.353 348.506H488.794C488.018 348.506 487.39 349.148 487.39 349.938C487.39 350.729 488.018 351.371 488.794 351.371H491.353C492.129 351.371 492.758 350.729 492.758 349.938C492.758 349.148 492.129 348.506 491.353 348.506Z" fill="white"/>
<path d="M520.618 348.506H518.059C517.283 348.506 516.655 349.148 516.655 349.938C516.655 350.729 517.283 351.371 518.059 351.371H520.618C521.394 351.371 522.023 350.729 522.023 349.938C522.023 349.148 521.394 348.506 520.618 348.506Z" fill="white"/>
<path d="M528.91 348.506H526.351C525.575 348.506 524.946 349.148 524.946 349.938C524.946 350.729 525.575 351.371 526.351 351.371H528.91C529.686 351.371 530.315 350.729 530.315 349.938C530.315 349.148 529.686 348.506 528.91 348.506Z" fill="white"/>
<path d="M512.658 348.268H496.754C495.979 348.268 495.35 348.909 495.35 349.7C495.35 350.491 495.979 351.132 496.754 351.132H512.658C513.434 351.132 514.063 350.491 514.063 349.7C514.063 348.909 513.434 348.268 512.658 348.268Z" fill="white"/>
<path d="M497.206 374.213H494.647C493.871 374.213 493.243 374.854 493.243 375.645C493.243 376.436 493.871 377.077 494.647 377.077H497.206C497.982 377.077 498.611 376.436 498.611 375.645C498.611 374.854 497.982 374.213 497.206 374.213Z" fill="white"/>
<path d="M505.498 374.213H502.939C502.163 374.213 501.534 374.854 501.534 375.645C501.534 376.436 502.163 377.077 502.939 377.077H505.498C506.274 377.077 506.903 376.436 506.903 375.645C506.903 374.854 506.274 374.213 505.498 374.213Z" fill="white"/>
<path d="M528.266 374.452H512.362C511.587 374.452 510.958 375.093 510.958 375.884C510.958 376.675 511.587 377.316 512.362 377.316H528.266C529.042 377.316 529.671 376.675 529.671 375.884C529.671 375.093 529.042 374.452 528.266 374.452Z" fill="white"/>
<path d="M467.941 374.213H465.382C464.606 374.213 463.978 374.854 463.978 375.645C463.978 376.436 464.606 377.077 465.382 377.077H467.941C468.717 377.077 469.346 376.436 469.346 375.645C469.346 374.854 468.717 374.213 467.941 374.213Z" fill="white"/>
<path d="M489.246 374.452H473.342C472.567 374.452 471.938 375.093 471.938 375.884C471.938 376.675 472.567 377.316 473.342 377.316H489.246C490.022 377.316 490.651 376.675 490.651 375.884C490.651 375.093 490.022 374.452 489.246 374.452Z" fill="white"/>
<path d="M475.745 367.748H473.186C472.41 367.748 471.781 368.389 471.781 369.18C471.781 369.971 472.41 370.612 473.186 370.612H475.745C476.521 370.612 477.15 369.971 477.15 369.18C477.15 368.389 476.521 367.748 475.745 367.748Z" fill="white"/>
<path d="M505.01 367.748H502.451C501.675 367.748 501.047 368.389 501.047 369.18C501.047 369.971 501.675 370.612 502.451 370.612H505.01C505.786 370.612 506.415 369.971 506.415 369.18C506.415 368.389 505.786 367.748 505.01 367.748Z" fill="white"/>
<path d="M513.302 367.748H510.743C509.967 367.748 509.338 368.389 509.338 369.18C509.338 369.971 509.967 370.612 510.743 370.612H513.302C514.078 370.612 514.707 369.971 514.707 369.18C514.707 368.389 514.078 367.748 513.302 367.748Z" fill="white"/>
<path d="M497.05 367.987H481.146C480.371 367.987 479.742 368.628 479.742 369.419C479.742 370.21 480.371 370.851 481.146 370.851H497.05C497.826 370.851 498.455 370.21 498.455 369.419C498.455 368.628 497.826 367.987 497.05 367.987Z" fill="white"/>
<path d="M483.549 361.283H480.99C480.214 361.283 479.586 361.925 479.586 362.716C479.586 363.507 480.214 364.148 480.99 364.148H483.549C484.325 364.148 484.954 363.507 484.954 362.716C484.954 361.925 484.325 361.283 483.549 361.283Z" fill="white"/>
<path d="M512.814 361.283H510.255C509.479 361.283 508.851 361.925 508.851 362.716C508.851 363.507 509.479 364.148 510.255 364.148H512.814C513.59 364.148 514.219 363.507 514.219 362.716C514.219 361.925 513.59 361.283 512.814 361.283Z" fill="white"/>
<path d="M521.106 361.283H518.547C517.771 361.283 517.142 361.925 517.142 362.716C517.142 363.507 517.771 364.148 518.547 364.148H521.106C521.882 364.148 522.51 363.507 522.51 362.716C522.51 361.925 521.882 361.283 521.106 361.283Z" fill="white"/>
<path d="M504.854 361.522H488.95C488.175 361.522 487.546 362.163 487.546 362.954C487.546 363.745 488.175 364.387 488.95 364.387H504.854C505.63 364.387 506.259 363.745 506.259 362.954C506.259 362.163 505.63 361.522 504.854 361.522Z" fill="white"/>
<path d="M491.353 354.819H488.794C488.018 354.819 487.39 355.46 487.39 356.251C487.39 357.042 488.018 357.683 488.794 357.683H491.353C492.129 357.683 492.758 357.042 492.758 356.251C492.758 355.46 492.129 354.819 491.353 354.819Z" fill="white"/>
<path d="M520.618 354.819H518.059C517.283 354.819 516.655 355.46 516.655 356.251C516.655 357.042 517.283 357.683 518.059 357.683H520.618C521.394 357.683 522.023 357.042 522.023 356.251C522.023 355.46 521.394 354.819 520.618 354.819Z" fill="white"/>
<path d="M528.91 354.819H526.351C525.575 354.819 524.946 355.46 524.946 356.251C524.946 357.042 525.575 357.683 526.351 357.683H528.91C529.686 357.683 530.315 357.042 530.315 356.251C530.315 355.46 529.686 354.819 528.91 354.819Z" fill="white"/>
<path d="M512.658 355.057H496.754C495.979 355.057 495.35 355.699 495.35 356.49C495.35 357.281 495.979 357.922 496.754 357.922H512.658C513.434 357.922 514.063 357.281 514.063 356.49C514.063 355.699 513.434 355.057 512.658 355.057Z" fill="white"/>
<path d="M454.337 449.977L442.325 430.618L480.029 399.974L495.592 382.395C497.614 380.111 500.188 378.408 503.058 377.457C505.927 376.505 508.992 376.338 511.944 376.972C514.897 377.606 517.635 379.019 519.884 381.07C522.134 383.121 523.816 385.738 524.762 388.659C526.165 392.988 525.864 397.703 523.921 401.81C521.979 405.916 518.547 409.093 514.351 410.669L489.742 419.912L454.337 449.977Z" fill="#FFB6B6"/>
<path d="M172.487 309.611V403.702H237.14V309.611C237.141 308.935 236.929 308.275 236.535 307.73C236.142 307.185 235.587 306.784 234.953 306.584C234.654 306.483 234.341 306.434 234.026 306.437H175.61C175.2 306.436 174.795 306.518 174.416 306.677C174.037 306.836 173.693 307.07 173.403 307.364C173.113 307.659 172.883 308.009 172.726 308.395C172.569 308.78 172.488 309.194 172.487 309.611V309.611ZM197.718 341.941C197.735 340.086 198.47 338.313 199.762 337.007C201.055 335.702 202.801 334.969 204.62 334.969C206.44 334.969 208.185 335.702 209.478 337.007C210.77 338.313 211.505 340.086 211.522 341.941V352.858C211.512 354.718 210.781 356.499 209.488 357.811C208.195 359.123 206.444 359.859 204.62 359.859C202.796 359.859 201.046 359.123 199.752 357.811C198.459 356.499 197.728 354.718 197.718 352.858V341.941Z" fill="#2F2E41"/>
<path d="M172.289 400.693V409.766C172.291 410.236 172.474 410.686 172.799 411.02C173.124 411.353 173.565 411.542 174.026 411.546H235.601C236.063 411.543 236.504 411.355 236.83 411.021C237.155 410.688 237.338 410.236 237.338 409.766V400.693H172.289Z" fill="#9D9ABA"/>
<path d="M70.7802 167.852V339.647C70.7819 341.837 71.6356 343.936 73.154 345.484C74.6724 347.032 76.7313 347.902 78.8786 347.904H328.58C330.727 347.903 332.786 347.032 334.304 345.484C335.823 343.936 336.677 341.837 336.678 339.647V167.852C336.673 165.664 335.818 163.568 334.3 162.022C332.782 160.476 330.725 159.607 328.58 159.604H78.8786C76.7331 159.607 74.6762 160.476 73.1583 162.022C71.6404 163.568 70.7853 165.664 70.7802 167.852Z" fill="#9D9ABA"/>
<path d="M76.6381 169.989V337.528C76.64 338.698 77.0967 339.819 77.9079 340.646C78.7192 341.473 79.8189 341.939 80.9662 341.941H326.501C327.649 341.939 328.748 341.473 329.56 340.646C330.371 339.819 330.828 338.698 330.83 337.528V169.989C330.829 168.818 330.374 167.695 329.562 166.866C328.751 166.037 327.65 165.57 326.501 165.567H80.9662C79.8175 165.57 78.7167 166.037 77.9053 166.866C77.0939 167.695 76.6382 168.818 76.6381 169.989Z" fill="white"/>
<path d="M122.205 410.931C122.455 411.25 122.773 411.508 123.134 411.684C123.496 411.861 123.892 411.951 124.293 411.949H270.37C270.77 411.949 271.164 411.858 271.525 411.682C271.885 411.507 272.203 411.251 272.455 410.935C272.706 410.619 272.886 410.249 272.98 409.853C273.074 409.458 273.08 409.045 272.998 408.647L270.73 397.665C270.636 397.217 270.434 396.801 270.142 396.453C269.849 396.105 269.476 395.837 269.057 395.674C268.753 395.553 268.429 395.491 268.103 395.491H126.551C126.225 395.491 125.901 395.553 125.598 395.674C125.178 395.837 124.805 396.105 124.512 396.453C124.22 396.8 124.018 397.217 123.924 397.665L121.656 408.647C121.576 409.045 121.583 409.457 121.678 409.852C121.773 410.247 121.953 410.616 122.205 410.931Z" fill="#2F2E41"/>
<path d="M318.533 188.647H88.7867C88.5479 188.641 88.3207 188.541 88.1536 188.367C87.9866 188.192 87.8931 187.959 87.8931 187.715C87.8931 187.472 87.9866 187.238 88.1536 187.064C88.3207 186.889 88.5479 186.789 88.7867 186.784H318.533C318.772 186.789 318.999 186.889 319.166 187.064C319.333 187.238 319.427 187.472 319.427 187.715C319.427 187.959 319.333 188.192 319.166 188.367C318.999 188.541 318.772 188.641 318.533 188.647V188.647Z" fill="#9D9ABA"/>
<path d="M104.426 182.028C107.383 182.028 109.78 179.529 109.78 176.447C109.78 173.365 107.383 170.866 104.426 170.866C101.469 170.866 99.0715 173.365 99.0715 176.447C99.0715 179.529 101.469 182.028 104.426 182.028Z" fill="#9D9ABA"/>
<path d="M122.923 182.028C125.88 182.028 128.277 179.529 128.277 176.447C128.277 173.365 125.88 170.866 122.923 170.866C119.966 170.866 117.568 173.365 117.568 176.447C117.568 179.529 119.966 182.028 122.923 182.028Z" fill="#9D9ABA"/>
<path d="M141.419 182.028C144.377 182.028 146.774 179.529 146.774 176.447C146.774 173.365 144.377 170.866 141.419 170.866C138.462 170.866 136.065 173.365 136.065 176.447C136.065 179.529 138.462 182.028 141.419 182.028Z" fill="#9D9ABA"/>
<path d="M307.395 172.246H294.257C293.998 172.252 293.751 172.362 293.569 172.551C293.388 172.741 293.286 172.995 293.286 173.26C293.286 173.525 293.388 173.779 293.569 173.969C293.751 174.158 293.998 174.268 294.257 174.274H307.395C307.656 174.27 307.905 174.161 308.089 173.972C308.272 173.782 308.375 173.526 308.375 173.26C308.375 172.994 308.272 172.738 308.089 172.548C307.905 172.358 307.656 172.25 307.395 172.246Z" fill="#9D9ABA"/>
<path d="M307.395 176.053H294.257C293.997 176.059 293.75 176.169 293.568 176.358C293.387 176.548 293.285 176.802 293.285 177.067C293.285 177.332 293.387 177.587 293.568 177.776C293.75 177.966 293.997 178.075 294.257 178.081H307.395C307.656 178.078 307.906 177.97 308.09 177.78C308.274 177.59 308.377 177.334 308.377 177.067C308.377 176.8 308.274 176.544 308.09 176.355C307.906 176.165 307.656 176.057 307.395 176.053V176.053Z" fill="#9D9ABA"/>
<path d="M307.395 179.861H294.257C293.998 179.867 293.751 179.976 293.569 180.166C293.388 180.355 293.286 180.61 293.286 180.874C293.286 181.139 293.388 181.394 293.569 181.583C293.751 181.773 293.998 181.882 294.257 181.888H307.395C307.656 181.884 307.905 181.776 308.089 181.586C308.272 181.397 308.375 181.141 308.375 180.874C308.375 180.608 308.272 180.352 308.089 180.163C307.905 179.973 307.656 179.864 307.395 179.861V179.861Z" fill="#9D9ABA"/>
<path d="M624.114 404.675C624.511 405.851 625.263 406.87 626.263 407.584C627.262 408.298 628.458 408.67 629.678 408.648L653.516 408.022C654.745 407.998 655.934 407.569 656.904 406.799C657.874 406.029 658.573 404.959 658.898 403.75L662.271 366.973C663.468 367.526 664.771 367.799 666.085 367.772C667.226 367.743 668.35 367.485 669.394 367.013C670.437 366.54 671.379 365.863 672.166 365.02C672.953 364.176 673.569 363.183 673.979 362.097C674.389 361.011 674.586 359.853 674.557 358.689C674.529 357.525 674.275 356.379 673.812 355.315C673.349 354.251 672.685 353.291 671.858 352.489C671.03 351.687 670.056 351.058 668.991 350.64C667.925 350.222 666.79 350.022 665.648 350.051C665.123 350.049 664.6 350.105 664.086 350.216C663.528 349.6 662.849 349.111 662.094 348.778C661.338 348.446 660.523 348.279 659.7 348.287L623.032 349.252C622.728 349.264 622.425 349.302 622.127 349.367C621.323 349.52 620.561 349.847 619.891 350.325C619.221 350.804 618.659 351.423 618.244 352.141C617.828 352.86 617.569 353.661 617.482 354.49C617.396 355.319 617.484 356.158 617.742 356.949L624.114 404.675ZM662.963 364.476L665.363 355.712C665.636 354.7 665.643 353.632 665.382 352.616C665.498 352.616 665.601 352.56 665.717 352.56C667.363 352.525 668.956 353.157 670.145 354.317C671.334 355.478 672.024 357.072 672.063 358.75C672.101 360.428 671.485 362.053 670.351 363.268C669.216 364.484 667.654 365.192 666.009 365.236C664.945 365.27 663.892 365.007 662.963 364.476Z" fill="#2F2E41"/>
<path d="M622.128 349.367C622.909 353.921 631.692 357.123 642.253 356.566C651.964 356.11 659.905 352.633 661.36 348.513C660.822 348.35 660.262 348.274 659.7 348.287L623.032 349.252C622.728 349.264 622.425 349.302 622.128 349.367V349.367Z" fill="#9D9ABA"/>
<path d="M644.188 384.465C644.237 384.453 644.283 384.432 644.324 384.405L649.501 380.95C649.564 380.908 649.615 380.851 649.651 380.784C649.686 380.717 649.705 380.642 649.705 380.566C649.705 380.49 649.686 380.415 649.651 380.348C649.615 380.281 649.564 380.224 649.501 380.183L644.121 376.589C644.071 376.556 644.016 376.533 643.958 376.522C643.9 376.51 643.84 376.511 643.782 376.523C643.724 376.535 643.669 376.559 643.62 376.593C643.571 376.627 643.529 376.67 643.496 376.72C643.464 376.771 643.442 376.827 643.431 376.887C643.42 376.946 643.42 377.007 643.432 377.066C643.445 377.125 643.468 377.181 643.502 377.231C643.535 377.281 643.578 377.323 643.628 377.356L648.433 380.566L643.832 383.637C643.743 383.696 643.677 383.786 643.647 383.89C643.616 383.994 643.623 384.106 643.666 384.205C643.709 384.305 643.785 384.385 643.881 384.433C643.976 384.481 644.085 384.492 644.188 384.465H644.188Z" fill="#F0F0F1"/>
<path d="M636.012 384.85C636.099 384.828 636.177 384.779 636.237 384.711C636.297 384.643 636.335 384.558 636.347 384.468C636.359 384.377 636.345 384.285 636.305 384.203C636.266 384.121 636.203 384.053 636.125 384.007L631.354 381.218L635.966 377.725C636.013 377.689 636.053 377.644 636.083 377.593C636.114 377.541 636.134 377.484 636.142 377.424C636.151 377.365 636.148 377.304 636.134 377.246C636.119 377.187 636.094 377.132 636.058 377.084C636.023 377.036 635.979 376.995 635.928 376.964C635.878 376.933 635.821 376.913 635.763 376.904C635.705 376.895 635.645 376.898 635.588 376.913C635.531 376.927 635.477 376.953 635.429 376.989L630.266 380.9C630.206 380.945 630.158 381.005 630.126 381.074C630.094 381.143 630.08 381.219 630.085 381.295C630.089 381.371 630.112 381.445 630.151 381.51C630.191 381.574 630.245 381.628 630.31 381.666L635.678 384.803C635.779 384.862 635.899 384.879 636.012 384.85V384.85Z" fill="#F0F0F1"/>
<path d="M643.674 387.493C643.717 387.482 643.759 387.464 643.797 387.44C643.847 387.409 643.891 387.367 643.926 387.319C643.961 387.27 643.986 387.215 644 387.156C644.014 387.098 644.017 387.037 644.008 386.978C643.999 386.918 643.978 386.861 643.948 386.809L636.609 374.508C636.547 374.405 636.447 374.33 636.331 374.302C636.215 374.273 636.093 374.293 635.991 374.356C635.889 374.419 635.816 374.521 635.788 374.639C635.759 374.757 635.778 374.882 635.84 374.986L643.179 387.287C643.229 387.371 643.304 387.436 643.393 387.473C643.482 387.51 643.58 387.517 643.674 387.493Z" fill="#F0F0F1"/>
<path d="M231.111 239.288H191.347C189.724 239.288 188.409 240.628 188.409 242.282V246.243C188.409 247.897 189.724 249.238 191.347 249.238H231.111C232.733 249.238 234.048 247.897 234.048 246.243V242.282C234.048 240.628 232.733 239.288 231.111 239.288Z" fill="#F0F0F1"/>
<path d="M254.289 259.188H168.168C166.546 259.188 165.231 260.529 165.231 262.182V266.143C165.231 267.797 166.546 269.138 168.168 269.138H254.289C255.911 269.138 257.226 267.797 257.226 266.143V262.182C257.226 260.529 255.911 259.188 254.289 259.188Z" fill="#E6E6E6"/>
<path d="M254.289 279.088H168.168C166.546 279.088 165.231 280.429 165.231 282.082V286.043C165.231 287.697 166.546 289.038 168.168 289.038H254.289C255.911 289.038 257.226 287.697 257.226 286.043V282.082C257.226 280.429 255.911 279.088 254.289 279.088Z" fill="#E6E6E6"/>
<path d="M261.589 345.725L261.784 346.353L261.794 346.374L267.666 364.574L274.42 385.547L287.128 424.961L287.251 431.083V431.104L288.196 480.355L285.578 487.032L288.524 497.979C288.524 497.979 287.169 481.432 279.902 490.934C275.785 496.335 270.971 501.861 267.019 507.041C272.778 509.417 278.629 511.566 284.572 513.488C285.855 513.907 287.149 514.304 288.442 514.702C288.719 514.786 288.996 514.869 289.274 514.953C308.975 520.893 329.343 524.231 349.878 524.885C350.945 524.916 351.992 524.937 353.008 524.958C353.368 524.969 353.717 524.979 354.066 524.979C355.215 524.99 356.355 525 357.504 525C359.824 525 362.134 524.965 364.433 524.895C381.452 524.406 398.371 522.073 414.906 517.936C414.793 510.976 414.485 502.844 414.043 494.158C413.838 489.898 409.229 485.283 408.952 480.825C408.757 477.476 412.894 474.326 412.678 470.924C411.282 449.983 409.537 458.021 408.244 443.192C408.11 441.737 407.987 440.345 407.874 439.016C407.043 429.492 406.468 423.537 406.468 423.537L411.99 388.048L420.664 332.33L419.997 331.21L419.248 330.833L373.497 307.746L371.013 301.257C370.289 299.388 369.033 297.782 367.407 296.646C365.781 295.51 363.859 294.896 361.887 294.884L331.75 294.758C330.186 294.751 328.642 295.124 327.248 295.847C325.854 296.569 324.649 297.62 323.733 298.913L315.572 310.435L261.589 345.725Z" fill="#9D9ABA"/>
<path d="M294.078 416.19L287.251 431.083L282.591 441.256L274.574 484.05L270.561 488.393L267.122 473.017L231.131 481.165C229.95 474.477 230.815 481.391 230.086 474.055C230.291 473.845 230.507 473.636 230.723 473.427C231.297 472.883 231.78 472.37 231.77 471.878C231.359 446.572 232.591 403.506 242.876 377.415C244.487 373.155 246.611 369.116 249.199 365.39C249.405 365.108 249.6 364.825 249.795 364.543C254.537 357.771 257.534 351.105 261.784 346.364V346.353C261.811 346.332 261.835 346.307 261.856 346.28C261.871 346.272 261.885 346.262 261.897 346.249L291.09 330.467L292.343 366.343L293.236 392.13L294.078 416.19Z" fill="#9D9ABA"/>
<path d="M399.344 420.42L407.87 439.021L410.846 445.499L418.861 488.289L422.861 492.621L426.308 477.25L427.927 476.911L457.134 470.744L465.647 498.309C467.566 495.049 468.322 491.215 467.787 487.452C467.252 483.69 465.46 480.232 462.713 477.662C462.131 477.126 461.647 476.603 461.661 476.109C462.145 446.346 460.36 391.997 444.234 369.628C439.112 362.53 436.039 355.459 431.568 350.52C431.554 350.506 431.554 350.492 431.54 350.492L420.66 332.328L419.996 331.213L419.248 330.832L399.344 420.42Z" fill="#9D9ABA"/>
<path d="M347.689 286.013C369.833 286.013 387.784 267.711 387.784 245.135C387.784 222.558 369.833 204.256 347.689 204.256C325.545 204.256 307.594 222.558 307.594 245.135C307.594 267.711 325.545 286.013 347.689 286.013Z" fill="#FFB6B6"/>
<path d="M401.882 216.581C401.571 216.243 401.196 215.972 400.781 215.784C400.365 215.596 399.916 215.496 399.461 215.49L400.064 213.783C400.261 213.246 400.314 212.664 400.218 212.099C400.122 211.534 399.88 211.005 399.518 210.566C399.155 210.127 398.685 209.795 398.155 209.602C397.624 209.41 397.054 209.365 396.501 209.471L394.305 209.902L394.512 208.407C394.592 207.85 394.527 207.282 394.326 206.758C394.124 206.234 393.793 205.772 393.363 205.419C392.934 205.065 392.422 204.832 391.877 204.741C391.332 204.651 390.773 204.706 390.256 204.903C389.785 205.091 389.279 205.17 388.775 205.134C388.27 205.097 387.78 204.946 387.341 204.692C386.899 204.445 386.516 204.102 386.217 203.689C385.919 203.275 385.713 202.8 385.613 202.297L384.848 198.536L384.767 198.334C381.042 192.004 373.879 187.398 365.115 185.71C357.313 184.196 349.314 184.967 341.603 185.692C338.543 185.985 335.088 186.316 332.208 188.114C329.761 189.655 327.691 192.738 328.114 195.848C320.511 193.471 312.358 198.214 308.318 204.196C303.531 211.315 302.748 220.233 302.622 227.205C302.28 243.7 305.619 257.195 312.52 267.324C313.024 268.058 313.15 269.59 314.149 270.103L313.942 269.764C315.058 270.333 316.191 271.25 315.769 272.232C314.554 275.058 322.625 281.305 328.312 283.369C338.687 287.14 352.481 286.819 362.182 285.461L362.523 283.122C366.024 282.635 368.489 281.709 369.182 280.259C370.406 279.195 371.45 278.241 372.359 277.36L372.368 277.351C372.386 277.333 372.421 277.305 372.439 277.287C376.822 273.003 377.838 270.562 378.297 266.847C378.738 263.205 377.955 259.507 377.155 256.177C394.017 258.838 370.514 237.865 386.225 233.81C386.405 233.754 386.588 233.708 386.774 233.673C387.233 233.563 387.692 233.453 388.132 233.324C390.258 232.736 392.293 231.85 394.179 230.691C398.57 227.966 400.019 224.352 402.287 220.278C402.614 219.698 402.751 219.027 402.678 218.362C402.605 217.697 402.326 217.073 401.882 216.581V216.581Z" fill="#2F2E41"/>
<path d="M489.498 423.331C489.489 424.936 489.471 427.184 489.399 429.964C489.39 430.349 489.381 430.743 489.372 431.147C489.255 436.257 489.138 440.542 488.949 445.303C488.94 445.633 488.931 445.954 488.913 446.285C488.661 452.927 488.265 460.661 487.581 472.908C486.312 495.532 484.099 476.018 481.876 483.954C481.768 484.348 481.651 484.816 481.543 485.367C481.207 487.364 480.639 489.313 479.852 491.174C478.673 491.889 477.458 492.578 476.261 493.266C472.851 495.201 469.387 497.064 465.895 498.834C463.934 499.825 461.963 500.798 459.984 501.733C459.669 501.88 459.363 502.027 459.057 502.165C448.919 506.945 438.472 511.01 427.788 514.33C425.7 514.972 423.622 515.596 421.516 516.174C419.32 516.797 417.125 517.385 414.902 517.935C398.368 522.073 381.449 524.408 364.431 524.898C362.137 524.972 359.824 524.999 357.502 524.999C356.351 524.999 355.217 524.99 354.065 524.981C353.714 524.981 353.363 524.972 353.012 524.962C351.996 524.935 350.943 524.917 349.881 524.889C329.346 524.236 308.978 520.897 289.278 514.953L288.441 514.706C287.145 514.302 285.858 513.908 284.572 513.485C278.633 511.568 272.781 509.421 267.016 507.045C262.616 505.238 258.267 503.299 253.969 501.229C253.929 501.218 253.893 501.199 253.861 501.174C252.961 500.752 252.052 500.311 251.152 499.862C251.035 499.798 250.909 499.733 250.783 499.669C247.427 497.999 244.106 496.25 240.822 494.422C238.06 487.954 234.172 486.715 231.761 481.027C231.059 479.337 230.552 477.57 230.249 475.761C230.249 475.743 230.24 475.725 230.24 475.697C230.492 479.11 229.169 469.642 230.231 475.66C230.222 475.55 230.213 475.431 230.204 475.293C230.177 474.963 230.141 474.559 230.087 474.055C227.001 443.33 227.199 408.193 225.858 379.24C225.768 377.368 225.675 375.576 225.579 373.864C225.552 373.295 225.516 372.735 225.48 372.185C225.543 372.02 225.615 371.845 225.696 371.68C225.713 371.632 225.734 371.586 225.759 371.542C225.786 371.486 225.816 371.43 225.849 371.377C225.867 371.35 225.894 371.313 225.912 371.286C225.925 371.254 225.94 371.223 225.957 371.194C226.038 371.065 226.128 370.928 226.227 370.799C226.272 370.744 226.308 370.698 226.353 370.653C226.384 370.606 226.42 370.563 226.461 370.524C226.489 370.48 226.522 370.44 226.56 370.405C226.596 370.368 226.632 370.322 226.677 370.276C226.696 370.248 226.721 370.223 226.749 370.203C226.82 370.12 226.898 370.043 226.983 369.974C227.304 369.673 227.647 369.397 228.009 369.148C228.135 369.065 228.27 368.983 228.396 368.891C229.302 368.338 230.257 367.871 231.248 367.497C231.59 367.368 231.932 367.249 232.301 367.121C232.436 367.084 232.562 367.038 232.697 366.992C232.895 366.928 233.093 366.864 233.3 366.818C234.325 366.506 235.432 366.24 236.629 365.992C236.773 365.965 236.926 365.937 237.079 365.9C237.295 365.855 237.52 365.818 237.745 365.781C238.051 365.726 238.366 365.671 238.681 365.616C241.353 365.185 244.385 364.864 247.733 364.653C248.048 364.634 248.363 364.616 248.678 364.598C249.047 364.579 249.415 364.561 249.793 364.543C250.108 364.524 250.432 364.515 250.756 364.506C251.071 364.488 251.395 364.478 251.728 364.469C252.637 364.442 253.573 364.414 254.527 364.396C257.244 364.341 260.105 364.359 263.111 364.423C264.506 364.46 265.927 364.497 267.385 364.561C267.484 364.561 267.574 364.57 267.664 364.57C268.933 364.616 270.21 364.671 271.524 364.744C272.442 364.79 273.369 364.836 274.296 364.891C275.168 364.946 276.05 365.001 276.941 365.066C277.634 365.102 278.327 365.157 279.029 365.203C279.623 365.249 280.216 365.295 280.81 365.332L281.62 365.387C282.061 365.423 282.502 365.451 282.952 365.497C283.942 365.579 284.932 365.662 285.939 365.744C286.938 365.836 287.955 365.928 288.972 366.02C289.989 366.111 291.014 366.212 292.04 366.313C292.148 366.322 292.247 366.332 292.346 366.341C293.282 366.442 294.218 366.533 295.163 366.634C295.379 366.653 295.603 366.671 295.819 366.699C296.72 366.791 297.639 366.899 298.548 366.997C298.827 367.028 299.104 367.058 299.384 367.089C300.096 367.168 300.798 367.237 301.515 367.322C302.46 367.432 303.423 367.533 304.359 367.662C305.088 367.744 305.816 367.827 306.545 367.919C307.688 368.056 308.849 368.203 310.01 368.359C310.45 368.414 310.891 368.469 311.332 368.533C314.644 368.955 317.991 369.423 321.392 369.91C326.548 370.653 331.785 371.46 337.058 372.331C342.34 373.203 347.652 374.124 352.994 375.093C354.344 375.341 355.694 375.588 357.052 375.845C357.664 375.964 358.276 376.084 358.888 376.203C359.932 376.396 360.976 376.597 362.019 376.799C363.063 377.001 364.107 377.203 365.151 377.414C366.393 377.662 367.643 377.909 368.885 378.157C377.064 379.808 385.199 381.57 393.135 383.414C394.44 383.717 395.745 384.029 397.041 384.331C399.632 384.946 402.2 385.57 404.743 386.203C405.445 386.368 406.138 386.542 406.831 386.717C408.558 387.157 410.286 387.597 411.987 388.047L412.284 388.129C413.534 388.441 414.758 388.762 415.982 389.093C418.87 389.863 421.711 390.643 424.503 391.432C426.357 391.955 428.19 392.484 430.001 393.019C432.71 393.817 435.364 394.625 437.947 395.441C438.586 395.643 439.224 395.845 439.854 396.038C441.744 396.634 443.607 397.239 445.415 397.845C446.855 398.322 448.259 398.808 449.644 399.294C451.03 399.781 452.389 400.267 453.721 400.753C454.575 401.065 455.421 401.395 456.267 401.707C457.482 402.166 458.679 402.625 459.848 403.083C460.208 403.221 460.559 403.368 460.91 403.505C461.135 403.606 461.351 403.689 461.567 403.781C461.99 403.955 462.422 404.12 462.836 404.294C463.259 404.459 463.673 404.634 464.087 404.817C464.491 404.982 464.905 405.157 465.301 405.331C465.706 405.496 466.102 405.67 466.498 405.854C466.831 405.992 467.155 406.138 467.47 406.285C468.109 406.57 468.748 406.854 469.369 407.147C469.674 407.294 469.98 407.432 470.286 407.579L470.988 407.909C471.087 407.964 471.186 408.01 471.285 408.056C471.51 408.166 471.744 408.285 471.969 408.395C472.491 408.643 473.004 408.909 473.508 409.157C474.183 409.505 474.839 409.854 475.469 410.193C476.108 410.542 476.729 410.891 477.323 411.23C477.422 411.285 477.512 411.34 477.611 411.395C477.746 411.468 477.881 411.551 478.016 411.625C478.475 411.891 478.916 412.166 479.357 412.432C480.22 412.973 481.039 413.505 481.804 414.037C481.975 414.157 482.137 414.276 482.308 414.386C482.875 414.799 483.415 415.202 483.919 415.615C483.919 415.624 483.919 415.624 483.928 415.624C484.099 415.753 484.261 415.89 484.423 416.019C484.558 416.147 484.702 416.257 484.836 416.386C485.304 416.799 485.736 417.193 486.132 417.597C486.265 417.721 486.391 417.853 486.51 417.991C486.563 418.036 486.611 418.085 486.654 418.138C486.834 418.322 486.996 418.505 487.149 418.689C487.173 418.714 487.194 418.741 487.212 418.771C487.428 419.028 487.626 419.285 487.815 419.542C487.905 419.67 488.004 419.799 488.085 419.927C488.193 420.083 488.301 420.248 488.391 420.404C488.472 420.533 488.544 420.67 488.616 420.799C488.807 421.129 488.969 421.476 489.102 421.835C489.203 422.079 489.284 422.33 489.345 422.588C489.413 422.831 489.464 423.08 489.498 423.331V423.331Z" fill="#2F2E41"/>
<path opacity="0.2" d="M489.498 423.331C489.489 424.936 489.471 427.184 489.399 429.964C489.39 430.349 489.372 430.743 489.363 431.147C489.273 435.046 489.138 439.863 488.949 445.303C488.94 445.633 488.931 445.954 488.913 446.285C488.661 452.927 488.265 460.661 487.581 472.908C486.312 495.532 484.099 476.018 481.876 483.954C475.703 480.082 468.937 476.027 461.702 471.862C460.397 471.11 459.081 470.355 457.752 469.596C443.283 461.367 427.122 452.743 410.25 444.202C409.584 443.863 408.909 443.523 408.243 443.193C369.596 423.716 327.412 404.771 293.237 392.129C286.641 389.689 280.342 387.487 274.422 385.551C261.95 381.487 251.17 378.643 242.874 377.414C234.235 376.13 228.27 376.588 225.858 379.24C225.768 377.368 225.675 375.576 225.579 373.864C225.543 373.295 225.507 372.735 225.471 372.185C225.527 372.034 225.599 371.889 225.669 371.744C225.679 371.723 225.686 371.701 225.696 371.68C225.713 371.633 225.734 371.586 225.759 371.542C225.786 371.485 225.816 371.43 225.849 371.377C225.878 371.312 225.914 371.251 225.957 371.194C226.038 371.065 226.128 370.928 226.227 370.799C226.3 370.703 226.378 370.611 226.461 370.524C226.488 370.48 226.522 370.44 226.56 370.405C226.596 370.368 226.632 370.322 226.677 370.276C226.696 370.248 226.721 370.223 226.749 370.203C226.82 370.12 226.898 370.043 226.983 369.974C227.304 369.673 227.647 369.396 228.009 369.148C228.135 369.065 228.27 368.983 228.395 368.891C229.302 368.338 230.257 367.871 231.248 367.497C231.59 367.368 231.932 367.249 232.301 367.12C232.436 367.084 232.562 367.038 232.697 366.992C232.895 366.928 233.093 366.864 233.3 366.818C234.325 366.506 235.432 366.24 236.629 365.992C236.989 365.919 237.367 365.845 237.745 365.781C238.051 365.726 238.366 365.671 238.681 365.616C241.353 365.185 244.385 364.864 247.733 364.653C248.048 364.634 248.363 364.616 248.678 364.598C249.046 364.579 249.415 364.561 249.793 364.543C250.108 364.524 250.432 364.515 250.756 364.506C251.071 364.487 251.395 364.478 251.728 364.469C252.637 364.442 253.573 364.414 254.526 364.396C257.244 364.35 260.105 364.368 263.111 364.432C264.505 364.46 265.927 364.506 267.385 364.57C267.475 364.57 267.574 364.579 267.664 364.579C268.933 364.616 270.219 364.68 271.524 364.744C272.442 364.79 273.369 364.836 274.296 364.891C275.168 364.946 276.05 365.001 276.941 365.065C277.634 365.102 278.327 365.157 279.029 365.203C279.622 365.249 280.216 365.295 280.81 365.331C281.521 365.387 282.232 365.442 282.952 365.497C283.942 365.579 284.931 365.662 285.939 365.744C286.938 365.836 287.955 365.928 288.972 366.02C289.988 366.111 291.014 366.212 292.04 366.313C292.148 366.322 292.247 366.332 292.346 366.341C293.282 366.442 294.218 366.533 295.162 366.634C300.399 367.176 305.789 367.809 311.332 368.533C314.644 368.965 317.997 369.426 321.392 369.919C326.548 370.662 331.785 371.469 337.058 372.331C342.34 373.203 347.652 374.123 352.994 375.093C354.344 375.341 355.694 375.588 357.052 375.845C358.708 376.157 360.364 376.475 362.019 376.799C363.063 377.001 364.107 377.203 365.151 377.414C366.393 377.662 367.643 377.909 368.885 378.157C377.065 379.808 385.199 381.57 393.135 383.414C394.44 383.717 395.745 384.029 397.041 384.331C399.632 384.946 402.2 385.57 404.743 386.203C405.445 386.377 406.138 386.551 406.831 386.726C408.567 387.166 410.286 387.606 411.987 388.047V388.056C412.086 388.074 412.185 388.102 412.284 388.129C413.525 388.45 414.758 388.772 415.982 389.102C418.87 389.872 421.711 390.649 424.503 391.432C426.357 391.964 428.193 392.487 430.001 393.019C432.71 393.827 435.364 394.634 437.947 395.441C438.586 395.643 439.224 395.845 439.854 396.038C441.744 396.643 443.598 397.245 445.415 397.845C446.855 398.322 448.259 398.808 449.644 399.294C451.03 399.781 452.389 400.267 453.721 400.753C454.584 401.065 455.43 401.386 456.267 401.698C457.491 402.157 458.679 402.615 459.848 403.083C460.208 403.221 460.559 403.368 460.91 403.505C461.567 403.762 462.206 404.028 462.836 404.294C463.259 404.459 463.673 404.634 464.087 404.817C464.491 404.982 464.905 405.157 465.301 405.331C465.706 405.496 466.102 405.67 466.498 405.854C466.831 405.992 467.155 406.138 467.47 406.285C468.109 406.569 468.748 406.854 469.368 407.147C469.674 407.294 469.98 407.432 470.286 407.579L470.988 407.909C471.087 407.964 471.186 408.01 471.285 408.056C472.05 408.423 472.788 408.79 473.508 409.157C474.183 409.505 474.839 409.854 475.469 410.193C476.216 410.597 476.927 410.991 477.611 411.395C477.746 411.468 477.881 411.551 478.016 411.624C478.475 411.891 478.916 412.166 479.357 412.432C480.22 412.973 481.039 413.505 481.804 414.037C482.56 414.569 483.262 415.092 483.919 415.615C483.919 415.624 483.919 415.624 483.928 415.624C484.243 415.881 484.549 416.138 484.836 416.386C485.304 416.799 485.736 417.193 486.132 417.597C486.265 417.721 486.391 417.853 486.51 417.991C486.563 418.036 486.611 418.085 486.654 418.138C486.843 418.349 487.032 418.56 487.212 418.771C487.428 419.028 487.626 419.285 487.815 419.542C487.905 419.67 488.004 419.799 488.085 419.927C488.193 420.083 488.301 420.248 488.391 420.404C488.472 420.533 488.544 420.67 488.616 420.799C488.807 421.129 488.969 421.476 489.102 421.835C489.2 422.08 489.281 422.331 489.345 422.588C489.413 422.831 489.464 423.08 489.498 423.331V423.331Z" fill="black"/>
</g>
<defs>
<clipPath id="clip0_58_3">
<rect width="708" height="525" fill="white"/>
</clipPath>
</defs>
</svg>
