<svg width="15" height="8" viewBox="0 0 15 8" fill="none" xmlns="http://www.w3.org/2000/svg">
<path d="M7.49999 7.89383C7.08934 7.89456 6.68256 7.81435 6.30293 7.65777C5.92329 7.5012 5.57824 7.27134 5.28749 6.98133L0.181244 1.87508C0.063554 1.75739 -0.00256348 1.59777 -0.00256348 1.43133C-0.00256348 1.26489 0.063554 1.10527 0.181244 0.987579C0.298934 0.869889 0.458555 0.803772 0.624994 0.803772C0.791432 0.803772 0.951054 0.869889 1.06874 0.987579L6.17499 6.09383C6.52656 6.44495 7.00312 6.64218 7.49999 6.64218C7.99687 6.64218 8.47343 6.44495 8.82499 6.09383L13.9312 0.987579C14.0489 0.869889 14.2086 0.803772 14.375 0.803772C14.5414 0.803772 14.7011 0.869889 14.8187 0.987579C14.9364 1.10527 15.0026 1.26489 15.0026 1.43133C15.0026 1.59777 14.9364 1.75739 14.8187 1.87508L9.71249 6.98133C9.42175 7.27134 9.0767 7.5012 8.69706 7.65777C8.31742 7.81435 7.91065 7.89456 7.49999 7.89383Z" fill="black" fill-opacity="0.6"/>
</svg>
